<?xml version="1.0" standalone="yes"?>
<svg xmlns="http://www.w3.org/2000/svg" width="200" height="200">
<path style="fill:#010101; stroke:none;" d="M0 0L0 200L200 200L200 0L0 0z"/>
<path style="fill:#1761a1; stroke:none;" d="M80 102C83.8159 100.508 88.9861 97.2539 93.267 98.4074C98.7358 99.8811 104.977 115.182 111.896 104.772C114.139 101.397 113.483 96.2921 109.856 94.179C104.59 91.1112 99.3049 96.9434 94.375 93.1559C90.7918 90.4029 84.4569 85.3827 83.0972 80.9954C81.4372 75.6387 86.8518 64.5656 76.0008 65.3372C71.563 65.6528 68.6301 69.6872 69.2477 73.9846C70.3178 81.4314 80.7369 79.7222 80.6914 88.5764C80.6776 91.2519 80.7061 96.6336 78.4769 98.4282C74.8846 101.32 68.6154 100.389 69.287 106.957C69.7526 111.509 76.1304 113.676 79.3958 110.397C81.6403 108.142 80.6281 104.678 80 102z"/>
<path style="fill:#238b91; stroke:none;" d="M82 81C85.3455 78.1088 88.1092 74.6005 92 72.3665C100.867 67.2753 113.257 69.3625 119.297 78.0401C121.423 81.0944 121.521 84.5856 122.634 88C123.664 91.1603 125.599 93.9981 127 97C120.744 100.155 124.16 105.216 120.397 109.682C115.863 115.062 106.927 110.021 102 108C104.95 113.184 117.426 117.279 122.4 112.397C124.717 110.124 124.438 105.819 125.919 103C127.509 99.9733 130.027 97.6973 129.304 94C127.128 82.876 122.497 70.9661 111 67.1049C101.024 63.7544 81.1004 67.3956 82 81z"/>
<path style="fill:#010101; stroke:none;" d="M75.314 70.1752C72.1069 71.7813 74.3852 76.7353 77.7215 75.338C81.1032 73.9216 78.5517 68.5537 75.314 70.1752M103 108C106.771 111.043 117.378 115.063 120.972 109.682C124.073 105.039 121.769 100.985 127 97C125.99 93.8078 124.189 91.1064 122.99 88C119.866 79.9062 119.394 74.0057 110 70.7608C102.809 68.2767 95.255 69.0539 89.0154 73.6381C86.0872 75.7895 83.0482 79.0065 83.9128 82.9421C84.6214 86.1674 87.3961 86.8238 89.6258 88.7184C92.462 91.1283 93.7861 94.6649 98.0154 94.9367C103.439 95.2854 109.236 90.5813 112.473 97.9545C115.29 104.371 108.048 107.723 103 108z"/>
<path style="fill:#238b91; stroke:none;" d="M78 82C76.7963 87.056 75.0675 95.8022 80 99L80 82L78 82z"/>
<path style="fill:#010101; stroke:none;" d="M80 86L80 90C81.084 88.1375 81.0732 87.8825 80 86M79.3333 91.6667C79.2778 91.7222 79.2222 92.7778 79.6667 92.3333C79.7222 92.2778 79.7778 91.2222 79.3333 91.6667M85 91L84 92L84 94L88 95L87 91L85 91M80 96L81 97L80 96M104.318 98.0856C101.016 100.109 104.335 104.859 107.397 102.763C110.271 100.796 107.406 96.1933 104.318 98.0856z"/>
<path style="fill:#238991; stroke:none;" d="M80 102C81.3372 107.123 85.6619 110.161 87.2037 114.985C88.4096 118.759 86.0032 124.846 86 129L88 129C88.3755 124.081 90.0455 122.447 95 123C94.2708 119.597 92.1942 120.013 89 120C88.9942 112.527 86.7475 106.079 80 102z"/>
<path style="fill:#010101; stroke:none;" d="M74 104L73 105L73 107L77 108L76 104L74 104z"/>
<path style="fill:#238b91; stroke:none;" d="M71 124L71 127C66.942 126.986 63.7798 126.448 60 125C62.1691 131.536 70.6761 129.11 75 126C77.5043 129.863 82.4957 129.863 85 126C82.3142 126.501 79.7301 126.883 77 127L77 125L85 125C83.9045 118.436 77.0486 119.03 74 124C70.1678 121.954 66.1817 121.996 62 121C66.591 118.564 69.2675 119.888 74 121C72.3483 116.891 65.4344 114.988 61.608 118.024C57.554 121.241 63.2967 123.78 65.9799 123.956C67.6429 124.065 69.3348 123.999 71 124M106 126C103.314 126.501 100.73 126.883 98 127L98 125L106 125C105.114 119.692 96.3378 117.603 95.662 124.039C95.0093 130.256 103.578 129.736 106 126z"/>
<path style="fill:#238991; stroke:none;" d="M107 120L107 129L109 129C109.57 121.533 115.177 121.702 116 129L118 129C117.97 120.426 114.946 120.001 107 120z"/>
<path style="fill:#238b91; stroke:none;" d="M122 123C120.521 123.986 120.797 124 119 124C119.994 129.957 124.977 128.999 130 129C129.959 126.554 130.132 123.296 128.361 121.333C126.822 119.628 121.275 119.065 119.833 121.222C118.801 122.766 121.356 122.862 122 123z"/>
<path style="fill:#010101; stroke:none;" d="M77 122C78.7691 122.779 80.0359 122.912 82 123C80.0815 121.856 79.2681 121.826 77 122M98 122C99.7691 122.779 101.036 122.912 103 123C101.231 122.221 99.9641 122.088 98 122M122 122C123.648 122.924 125.175 123.449 127 124C125.46 122.197 124.403 122.168 122 122M121 126C123.052 126.874 124.747 126.953 127 127C124.729 125.32 123.758 125.343 121 126z"/>
<path style="fill:#1761a1; stroke:none;" d="M18 133L18 135L174 135L174 133L18 133z"/>
</svg>
